<mxfile host="app.diagrams.net" modified="2023-10-17T09:46:48.037Z" agent="Mozilla/5.0 (Macintosh; Intel Mac OS X 10_15_7) AppleWebKit/605.1.15 (KHTML, like Gecko) Version/17.0 Safari/605.1.15" etag="04RBHxl9RhwRHlXndlj-" version="22.0.4" type="github">
  <diagram id="C5RBs43oDa-KdzZeNtuy" name="Page-1">
    <mxGraphModel dx="993" dy="719" grid="1" gridSize="10" guides="1" tooltips="1" connect="1" arrows="1" fold="1" page="1" pageScale="1" pageWidth="827" pageHeight="1169" math="0" shadow="0">
      <root>
        <mxCell id="WIyWlLk6GJQsqaUBKTNV-0" />
        <mxCell id="WIyWlLk6GJQsqaUBKTNV-1" parent="WIyWlLk6GJQsqaUBKTNV-0" />
        <mxCell id="_uDjVntInoWqZGXve88E-51" style="edgeStyle=orthogonalEdgeStyle;rounded=0;orthogonalLoop=1;jettySize=auto;html=1;entryX=0.5;entryY=0;entryDx=0;entryDy=0;" edge="1" parent="WIyWlLk6GJQsqaUBKTNV-1" source="_uDjVntInoWqZGXve88E-1" target="_uDjVntInoWqZGXve88E-4">
          <mxGeometry relative="1" as="geometry" />
        </mxCell>
        <mxCell id="_uDjVntInoWqZGXve88E-1" value="" style="ellipse;whiteSpace=wrap;html=1;" vertex="1" parent="WIyWlLk6GJQsqaUBKTNV-1">
          <mxGeometry x="280" y="950" width="120" height="70" as="geometry" />
        </mxCell>
        <mxCell id="_uDjVntInoWqZGXve88E-3" value="START" style="text;html=1;strokeColor=none;fillColor=none;align=center;verticalAlign=middle;whiteSpace=wrap;rounded=0;" vertex="1" parent="WIyWlLk6GJQsqaUBKTNV-1">
          <mxGeometry x="310" y="975" width="60" height="30" as="geometry" />
        </mxCell>
        <mxCell id="_uDjVntInoWqZGXve88E-55" style="edgeStyle=orthogonalEdgeStyle;rounded=0;orthogonalLoop=1;jettySize=auto;html=1;" edge="1" parent="WIyWlLk6GJQsqaUBKTNV-1">
          <mxGeometry relative="1" as="geometry">
            <mxPoint x="339.52" y="1200" as="targetPoint" />
            <mxPoint x="339.52" y="1140" as="sourcePoint" />
            <Array as="points">
              <mxPoint x="339.52" y="1190" />
              <mxPoint x="339.52" y="1190" />
            </Array>
          </mxGeometry>
        </mxCell>
        <mxCell id="_uDjVntInoWqZGXve88E-4" value="" style="rounded=0;whiteSpace=wrap;html=1;" vertex="1" parent="WIyWlLk6GJQsqaUBKTNV-1">
          <mxGeometry x="280" y="1070" width="120" height="60" as="geometry" />
        </mxCell>
        <mxCell id="_uDjVntInoWqZGXve88E-5" value="INPUT NUM1" style="text;html=1;strokeColor=none;fillColor=none;align=center;verticalAlign=middle;whiteSpace=wrap;rounded=0;" vertex="1" parent="WIyWlLk6GJQsqaUBKTNV-1">
          <mxGeometry x="310" y="1080" width="60" height="30" as="geometry" />
        </mxCell>
        <mxCell id="_uDjVntInoWqZGXve88E-53" style="edgeStyle=orthogonalEdgeStyle;rounded=0;orthogonalLoop=1;jettySize=auto;html=1;exitX=0.5;exitY=0;exitDx=0;exitDy=0;" edge="1" parent="WIyWlLk6GJQsqaUBKTNV-1" source="_uDjVntInoWqZGXve88E-6">
          <mxGeometry relative="1" as="geometry">
            <mxPoint x="340.19047619047615" y="1199.6190476190475" as="targetPoint" />
          </mxGeometry>
        </mxCell>
        <mxCell id="_uDjVntInoWqZGXve88E-54" style="edgeStyle=orthogonalEdgeStyle;rounded=0;orthogonalLoop=1;jettySize=auto;html=1;exitX=0.5;exitY=0;exitDx=0;exitDy=0;" edge="1" parent="WIyWlLk6GJQsqaUBKTNV-1" source="_uDjVntInoWqZGXve88E-6">
          <mxGeometry relative="1" as="geometry">
            <mxPoint x="340.19047619047615" y="1199.6190476190475" as="targetPoint" />
          </mxGeometry>
        </mxCell>
        <mxCell id="_uDjVntInoWqZGXve88E-56" style="edgeStyle=orthogonalEdgeStyle;rounded=0;orthogonalLoop=1;jettySize=auto;html=1;entryX=0.5;entryY=0;entryDx=0;entryDy=0;" edge="1" parent="WIyWlLk6GJQsqaUBKTNV-1" source="_uDjVntInoWqZGXve88E-6" target="_uDjVntInoWqZGXve88E-11">
          <mxGeometry relative="1" as="geometry" />
        </mxCell>
        <mxCell id="_uDjVntInoWqZGXve88E-6" value="" style="rounded=0;whiteSpace=wrap;html=1;" vertex="1" parent="WIyWlLk6GJQsqaUBKTNV-1">
          <mxGeometry x="280" y="1200" width="120" height="60" as="geometry" />
        </mxCell>
        <mxCell id="_uDjVntInoWqZGXve88E-9" value="CHECK IF NUM1 IS 0" style="text;html=1;strokeColor=none;fillColor=none;align=center;verticalAlign=middle;whiteSpace=wrap;rounded=0;" vertex="1" parent="WIyWlLk6GJQsqaUBKTNV-1">
          <mxGeometry x="300" y="1210" width="60" height="30" as="geometry" />
        </mxCell>
        <mxCell id="_uDjVntInoWqZGXve88E-59" style="edgeStyle=orthogonalEdgeStyle;rounded=0;orthogonalLoop=1;jettySize=auto;html=1;entryX=0.5;entryY=0;entryDx=0;entryDy=0;entryPerimeter=0;" edge="1" parent="WIyWlLk6GJQsqaUBKTNV-1" source="_uDjVntInoWqZGXve88E-11" target="_uDjVntInoWqZGXve88E-12">
          <mxGeometry relative="1" as="geometry">
            <mxPoint x="340" y="1540" as="targetPoint" />
          </mxGeometry>
        </mxCell>
        <mxCell id="_uDjVntInoWqZGXve88E-11" value="" style="rhombus;whiteSpace=wrap;html=1;" vertex="1" parent="WIyWlLk6GJQsqaUBKTNV-1">
          <mxGeometry x="290" y="1330" width="100" height="120" as="geometry" />
        </mxCell>
        <mxCell id="_uDjVntInoWqZGXve88E-12" value="" style="strokeWidth=2;html=1;shape=mxgraph.flowchart.delay;whiteSpace=wrap;" vertex="1" parent="WIyWlLk6GJQsqaUBKTNV-1">
          <mxGeometry x="290" y="1550" width="100" height="60" as="geometry" />
        </mxCell>
        <mxCell id="_uDjVntInoWqZGXve88E-13" value="END" style="text;html=1;strokeColor=none;fillColor=none;align=center;verticalAlign=middle;whiteSpace=wrap;rounded=0;" vertex="1" parent="WIyWlLk6GJQsqaUBKTNV-1">
          <mxGeometry x="310" y="1565" width="60" height="30" as="geometry" />
        </mxCell>
        <mxCell id="_uDjVntInoWqZGXve88E-15" value="NO" style="text;html=1;strokeColor=none;fillColor=none;align=center;verticalAlign=middle;whiteSpace=wrap;rounded=0;" vertex="1" parent="WIyWlLk6GJQsqaUBKTNV-1">
          <mxGeometry x="400" y="1360" width="60" height="30" as="geometry" />
        </mxCell>
        <mxCell id="_uDjVntInoWqZGXve88E-16" value="YES" style="text;html=1;strokeColor=none;fillColor=none;align=center;verticalAlign=middle;whiteSpace=wrap;rounded=0;" vertex="1" parent="WIyWlLk6GJQsqaUBKTNV-1">
          <mxGeometry x="290" y="1475" width="60" height="30" as="geometry" />
        </mxCell>
        <mxCell id="_uDjVntInoWqZGXve88E-60" style="edgeStyle=orthogonalEdgeStyle;rounded=0;orthogonalLoop=1;jettySize=auto;html=1;exitX=0.498;exitY=0.852;exitDx=0;exitDy=0;exitPerimeter=0;entryX=0.5;entryY=0;entryDx=0;entryDy=0;" edge="1" parent="WIyWlLk6GJQsqaUBKTNV-1" source="_uDjVntInoWqZGXve88E-17" target="_uDjVntInoWqZGXve88E-19">
          <mxGeometry relative="1" as="geometry">
            <mxPoint x="550" y="1480" as="targetPoint" />
            <Array as="points" />
          </mxGeometry>
        </mxCell>
        <mxCell id="_uDjVntInoWqZGXve88E-17" value="" style="shape=document;whiteSpace=wrap;html=1;boundedLbl=1;" vertex="1" parent="WIyWlLk6GJQsqaUBKTNV-1">
          <mxGeometry x="490" y="1360" width="120" height="80" as="geometry" />
        </mxCell>
        <mxCell id="_uDjVntInoWqZGXve88E-18" value="INPUT NUM1&amp;nbsp;" style="text;html=1;strokeColor=none;fillColor=none;align=center;verticalAlign=middle;whiteSpace=wrap;rounded=0;" vertex="1" parent="WIyWlLk6GJQsqaUBKTNV-1">
          <mxGeometry x="520" y="1370" width="60" height="30" as="geometry" />
        </mxCell>
        <mxCell id="_uDjVntInoWqZGXve88E-19" value="" style="shape=document;whiteSpace=wrap;html=1;boundedLbl=1;" vertex="1" parent="WIyWlLk6GJQsqaUBKTNV-1">
          <mxGeometry x="490" y="1490" width="120" height="80" as="geometry" />
        </mxCell>
        <mxCell id="_uDjVntInoWqZGXve88E-20" value="INPUT NUM2" style="text;html=1;strokeColor=none;fillColor=none;align=center;verticalAlign=middle;whiteSpace=wrap;rounded=0;" vertex="1" parent="WIyWlLk6GJQsqaUBKTNV-1">
          <mxGeometry x="520" y="1510" width="60" height="30" as="geometry" />
        </mxCell>
        <mxCell id="_uDjVntInoWqZGXve88E-62" style="edgeStyle=orthogonalEdgeStyle;rounded=0;orthogonalLoop=1;jettySize=auto;html=1;" edge="1" parent="WIyWlLk6GJQsqaUBKTNV-1" source="_uDjVntInoWqZGXve88E-21" target="_uDjVntInoWqZGXve88E-27">
          <mxGeometry relative="1" as="geometry" />
        </mxCell>
        <mxCell id="_uDjVntInoWqZGXve88E-21" value="" style="shape=parallelogram;perimeter=parallelogramPerimeter;whiteSpace=wrap;html=1;fixedSize=1;" vertex="1" parent="WIyWlLk6GJQsqaUBKTNV-1">
          <mxGeometry x="680" y="1380" width="210" height="110" as="geometry" />
        </mxCell>
        <mxCell id="_uDjVntInoWqZGXve88E-23" value="CALCULATE THE TOTAL=NUM1+NUM2+NUM3" style="text;html=1;strokeColor=none;fillColor=none;align=center;verticalAlign=middle;whiteSpace=wrap;rounded=0;" vertex="1" parent="WIyWlLk6GJQsqaUBKTNV-1">
          <mxGeometry x="750" y="1420" width="60" height="30" as="geometry" />
        </mxCell>
        <mxCell id="_uDjVntInoWqZGXve88E-63" style="edgeStyle=orthogonalEdgeStyle;rounded=0;orthogonalLoop=1;jettySize=auto;html=1;entryX=0.697;entryY=-0.064;entryDx=0;entryDy=0;entryPerimeter=0;" edge="1" parent="WIyWlLk6GJQsqaUBKTNV-1" source="_uDjVntInoWqZGXve88E-27" target="_uDjVntInoWqZGXve88E-31">
          <mxGeometry relative="1" as="geometry">
            <mxPoint x="1070" y="1870" as="targetPoint" />
          </mxGeometry>
        </mxCell>
        <mxCell id="_uDjVntInoWqZGXve88E-27" value="" style="rhombus;whiteSpace=wrap;html=1;" vertex="1" parent="WIyWlLk6GJQsqaUBKTNV-1">
          <mxGeometry x="960" y="1500" width="200" height="256" as="geometry" />
        </mxCell>
        <mxCell id="_uDjVntInoWqZGXve88E-26" value="CHECH IF NUM1==NUM2==NUM3" style="text;html=1;strokeColor=none;fillColor=none;align=center;verticalAlign=middle;whiteSpace=wrap;rounded=0;" vertex="1" parent="WIyWlLk6GJQsqaUBKTNV-1">
          <mxGeometry x="1030" y="1600" width="60" height="30" as="geometry" />
        </mxCell>
        <mxCell id="_uDjVntInoWqZGXve88E-29" value="NO" style="text;html=1;strokeColor=none;fillColor=none;align=center;verticalAlign=middle;whiteSpace=wrap;rounded=0;" vertex="1" parent="WIyWlLk6GJQsqaUBKTNV-1">
          <mxGeometry x="990" y="1800" width="60" height="30" as="geometry" />
        </mxCell>
        <mxCell id="_uDjVntInoWqZGXve88E-30" value="YES" style="text;html=1;strokeColor=none;fillColor=none;align=center;verticalAlign=middle;whiteSpace=wrap;rounded=0;" vertex="1" parent="WIyWlLk6GJQsqaUBKTNV-1">
          <mxGeometry x="1280" y="1590" width="60" height="30" as="geometry" />
        </mxCell>
        <mxCell id="_uDjVntInoWqZGXve88E-31" value="" style="shape=dataStorage;whiteSpace=wrap;html=1;fixedSize=1;" vertex="1" parent="WIyWlLk6GJQsqaUBKTNV-1">
          <mxGeometry x="1000" y="1880" width="100" height="80" as="geometry" />
        </mxCell>
        <mxCell id="_uDjVntInoWqZGXve88E-66" style="edgeStyle=orthogonalEdgeStyle;rounded=0;orthogonalLoop=1;jettySize=auto;html=1;entryX=0.325;entryY=1.004;entryDx=0;entryDy=0;entryPerimeter=0;" edge="1" parent="WIyWlLk6GJQsqaUBKTNV-1" source="_uDjVntInoWqZGXve88E-33" target="_uDjVntInoWqZGXve88E-45">
          <mxGeometry relative="1" as="geometry">
            <mxPoint x="1420" y="1430" as="targetPoint" />
          </mxGeometry>
        </mxCell>
        <mxCell id="_uDjVntInoWqZGXve88E-33" value="" style="rounded=1;whiteSpace=wrap;html=1;" vertex="1" parent="WIyWlLk6GJQsqaUBKTNV-1">
          <mxGeometry x="1390" y="1540" width="230" height="170" as="geometry" />
        </mxCell>
        <mxCell id="_uDjVntInoWqZGXve88E-39" value="END" style="text;html=1;strokeColor=none;fillColor=none;align=center;verticalAlign=middle;whiteSpace=wrap;rounded=0;" vertex="1" parent="WIyWlLk6GJQsqaUBKTNV-1">
          <mxGeometry x="1020" y="1905" width="60" height="30" as="geometry" />
        </mxCell>
        <mxCell id="_uDjVntInoWqZGXve88E-42" value="CALCULATE RESULTS=3*TOTAL" style="text;html=1;strokeColor=none;fillColor=none;align=center;verticalAlign=middle;whiteSpace=wrap;rounded=0;" vertex="1" parent="WIyWlLk6GJQsqaUBKTNV-1">
          <mxGeometry x="1490" y="1595" width="60" height="30" as="geometry" />
        </mxCell>
        <mxCell id="_uDjVntInoWqZGXve88E-43" style="edgeStyle=orthogonalEdgeStyle;rounded=0;orthogonalLoop=1;jettySize=auto;html=1;exitX=0.5;exitY=1;exitDx=0;exitDy=0;" edge="1" parent="WIyWlLk6GJQsqaUBKTNV-1" source="_uDjVntInoWqZGXve88E-33" target="_uDjVntInoWqZGXve88E-33">
          <mxGeometry relative="1" as="geometry" />
        </mxCell>
        <mxCell id="_uDjVntInoWqZGXve88E-67" style="edgeStyle=orthogonalEdgeStyle;rounded=0;orthogonalLoop=1;jettySize=auto;html=1;entryX=0.317;entryY=1.044;entryDx=0;entryDy=0;entryPerimeter=0;" edge="1" parent="WIyWlLk6GJQsqaUBKTNV-1" source="_uDjVntInoWqZGXve88E-45" target="_uDjVntInoWqZGXve88E-47">
          <mxGeometry relative="1" as="geometry">
            <mxPoint x="1400" y="1220" as="targetPoint" />
          </mxGeometry>
        </mxCell>
        <mxCell id="_uDjVntInoWqZGXve88E-45" value="" style="shape=document;whiteSpace=wrap;html=1;boundedLbl=1;" vertex="1" parent="WIyWlLk6GJQsqaUBKTNV-1">
          <mxGeometry x="1310" y="1280" width="330" height="140" as="geometry" />
        </mxCell>
        <mxCell id="_uDjVntInoWqZGXve88E-46" value="PRINT THE SUM OF THREE NUMBERS" style="text;html=1;strokeColor=none;fillColor=none;align=center;verticalAlign=middle;whiteSpace=wrap;rounded=0;" vertex="1" parent="WIyWlLk6GJQsqaUBKTNV-1">
          <mxGeometry x="1440" y="1320" width="60" height="30" as="geometry" />
        </mxCell>
        <mxCell id="_uDjVntInoWqZGXve88E-68" style="edgeStyle=orthogonalEdgeStyle;rounded=0;orthogonalLoop=1;jettySize=auto;html=1;" edge="1" parent="WIyWlLk6GJQsqaUBKTNV-1" source="_uDjVntInoWqZGXve88E-47" target="_uDjVntInoWqZGXve88E-49">
          <mxGeometry relative="1" as="geometry" />
        </mxCell>
        <mxCell id="_uDjVntInoWqZGXve88E-47" value="" style="shape=dataStorage;whiteSpace=wrap;html=1;fixedSize=1;" vertex="1" parent="WIyWlLk6GJQsqaUBKTNV-1">
          <mxGeometry x="1300" y="1130" width="310" height="80" as="geometry" />
        </mxCell>
        <mxCell id="_uDjVntInoWqZGXve88E-48" value="PRINT THE RESULTS IF EQUAL" style="text;html=1;strokeColor=none;fillColor=none;align=center;verticalAlign=middle;whiteSpace=wrap;rounded=0;" vertex="1" parent="WIyWlLk6GJQsqaUBKTNV-1">
          <mxGeometry x="1410" y="1160" width="60" height="30" as="geometry" />
        </mxCell>
        <mxCell id="_uDjVntInoWqZGXve88E-49" value="GO BACK TO THE INPUT NU1" style="text;html=1;strokeColor=none;fillColor=none;align=center;verticalAlign=middle;whiteSpace=wrap;rounded=0;" vertex="1" parent="WIyWlLk6GJQsqaUBKTNV-1">
          <mxGeometry x="580" y="1290" width="310" height="30" as="geometry" />
        </mxCell>
        <mxCell id="_uDjVntInoWqZGXve88E-58" style="edgeStyle=orthogonalEdgeStyle;rounded=0;orthogonalLoop=1;jettySize=auto;html=1;entryX=-0.034;entryY=0.34;entryDx=0;entryDy=0;entryPerimeter=0;" edge="1" parent="WIyWlLk6GJQsqaUBKTNV-1" source="_uDjVntInoWqZGXve88E-11" target="_uDjVntInoWqZGXve88E-17">
          <mxGeometry relative="1" as="geometry" />
        </mxCell>
        <mxCell id="_uDjVntInoWqZGXve88E-61" style="edgeStyle=orthogonalEdgeStyle;rounded=0;orthogonalLoop=1;jettySize=auto;html=1;entryX=0.037;entryY=0.568;entryDx=0;entryDy=0;entryPerimeter=0;" edge="1" parent="WIyWlLk6GJQsqaUBKTNV-1" source="_uDjVntInoWqZGXve88E-19" target="_uDjVntInoWqZGXve88E-21">
          <mxGeometry relative="1" as="geometry" />
        </mxCell>
        <mxCell id="_uDjVntInoWqZGXve88E-65" style="edgeStyle=orthogonalEdgeStyle;rounded=0;orthogonalLoop=1;jettySize=auto;html=1;entryX=-0.001;entryY=0.463;entryDx=0;entryDy=0;entryPerimeter=0;" edge="1" parent="WIyWlLk6GJQsqaUBKTNV-1" source="_uDjVntInoWqZGXve88E-27" target="_uDjVntInoWqZGXve88E-33">
          <mxGeometry relative="1" as="geometry" />
        </mxCell>
        <mxCell id="_uDjVntInoWqZGXve88E-69" style="edgeStyle=orthogonalEdgeStyle;rounded=0;orthogonalLoop=1;jettySize=auto;html=1;exitX=0.5;exitY=1;exitDx=0;exitDy=0;entryX=0.6;entryY=-0.05;entryDx=0;entryDy=0;entryPerimeter=0;" edge="1" parent="WIyWlLk6GJQsqaUBKTNV-1" source="_uDjVntInoWqZGXve88E-49" target="_uDjVntInoWqZGXve88E-17">
          <mxGeometry relative="1" as="geometry" />
        </mxCell>
      </root>
    </mxGraphModel>
  </diagram>
</mxfile>
